<?xml version="1.0" encoding="UTF-8" standalone="no"?>
<svg
   version="1.0"
   width="2000"
   height="350"
   viewBox="2 2 1500 262.49992"
   preserveAspectRatio="xMidYMid"
   id="svg1"
   sodipodi:docname="shardik.svg"
   inkscape:version="1.3.2 (091e20e, 2023-11-25)"
   xmlns:inkscape="http://www.inkscape.org/namespaces/inkscape"
   xmlns:sodipodi="http://sodipodi.sourceforge.net/DTD/sodipodi-0.dtd"
   xmlns="http://www.w3.org/2000/svg"
   xmlns:svg="http://www.w3.org/2000/svg">
  <defs
     id="defs1" />
  <sodipodi:namedview
     id="namedview1"
     pagecolor="#ffffff"
     bordercolor="#999999"
     borderopacity="1"
     inkscape:showpageshadow="2"
     inkscape:pageopacity="0"
     inkscape:pagecheckerboard="0"
     inkscape:deskcolor="#d1d1d1"
     inkscape:document-units="pt"
     inkscape:zoom="0.39513953"
     inkscape:cx="1131.246"
     inkscape:cy="779.47149"
     inkscape:window-width="2560"
     inkscape:window-height="1387"
     inkscape:window-x="0"
     inkscape:window-y="25"
     inkscape:window-maximized="1"
     inkscape:current-layer="svg1"
     showguides="false" />
  <metadata
     id="metadata1">
Created by potrace 1.16, written by Peter Selinger 2001-2019
</metadata>
  <text
     xml:space="preserve"
     style="font-size:584.055px;font-family:Georgia;-inkscape-font-specification:Georgia;fill:#537d9a;fill-rule:evenodd;stroke:#537d9a;stroke-width:0.122994;-inkscape-stroke:none"
     x="59.514851"
     y="78.783852"
     id="text1"><tspan
       sodipodi:role="line"
       id="tspan1"
       style="stroke-width:0.122994"
       x="59.514851"
       y="78.783852" /></text>
  <g
     id="g2"
     transform="matrix(5.0927143,0,0,5.0927143,5.7995583,5.1678868)">
    <g
       id="g1"
       transform="matrix(0.63388898,0,0,0.63388898,106.46056,0.11145537)">
      <path
         d="m 248.10261,9.98747 c -2.73542,0.589232 -7.44872,3.114157 -9.80539,5.176245 l -2.23037,1.977904 V 14.364116 11.58664 h -2.52501 -2.52495 v 13.256176 13.256175 h -6.52289 -6.52289 v 4.629117 4.629172 h 6.52289 6.52289 v 13.256122 l -0.12154,13.208487 2.64648,0.04772 h 2.525 v -2.777478 -2.819579 l 2.01996,1.893746 c 2.4829,2.314586 5.0079,3.787495 8.37456,4.92372 3.3666,1.136228 12.162,1.262517 15.73905,0.210412 3.19829,-0.92578 6.56499,-2.861659 8.92164,-5.13414 l 1.97789,-1.935826 v 2.819529 2.819607 h 2.52502 2.52492 V 60.6134 47.357278 h 6.52287 6.52289 v -4.629172 -4.629117 h -6.52289 -6.52287 V 24.842816 11.58664 h -2.52492 -2.52502 v 2.777476 2.777503 l -2.06208,-1.851668 c -2.52502,-2.272454 -6.27042,-4.334515 -9.42662,-5.134114 C 258.96001,9.4825274 250.79589,9.3562386 248.1026,9.9874689 Z m 2.65122,1.557066 c -1.01,0.631284 -2.31457,1.683353 -2.90374,2.314611 -0.54708,0.631258 -2.06209,1.725406 -3.28247,2.440795 -3.61916,2.062087 -6.5229,5.386664 -7.86954,9.132052 -0.54708,1.430832 -0.58915,1.304568 -0.58915,-2.735397 l -0.0421,-4.250384 2.23038,-2.104193 c 3.70335,-3.534969 8.83744,-5.933711 12.66701,-5.975764 l 1.68332,-0.04205 z m -15.10782,13.719117 v 12.835338 h -1.89375 -1.89375 V 25.263653 12.428318 h 1.89375 1.89375 z m 25.839,-9.84744 c 1.09412,0.589126 5.30246,4.629144 5.30246,5.13414 0,0.210419 -4.83955,5.218324 -10.73116,11.152034 l -10.7312,10.773249 -1.51501,-1.472881 -1.47291,-1.515067 5.59705,-5.428663 c 3.11416,-2.987895 7.40662,-7.280411 9.59498,-9.552837 l 3.91369,-4.124203 -2.90372,-2.987815 -2.90373,-2.94587 2.4829,0.252497 c 1.34669,0.16834 2.86161,0.462917 3.36665,0.715416 z m -5.72329,0.547074 c 0.63123,0.336655 1.97789,1.472961 3.02994,2.525004 l 1.85167,1.935799 -3.02995,3.072052 -3.02997,3.03 -3.02999,-3.03 -3.03,-3.072052 1.64122,-1.725379 c 1.38878,-1.43083 3.82958,-3.324577 4.33458,-3.324577 0.0842,0 0.63123,0.252472 1.2625,0.589153 z m -14.15098,2.740819 -1.06484,1.393856 0.40256,0.36826 4.92372,4.923667 4.92372,4.923748 -4.33454,4.33454 -4.33457,4.334543 -2.56708,-2.693293 c -1.4308,-1.472881 -2.73537,-3.19834 -2.90371,-3.829572 -0.46292,-1.935826 0.12622,-5.512873 1.30457,-7.911616 1.01001,-2.10414 4.16622,-6.228288 4.75538,-6.228288 0.12625,0 -0.55816,-0.204998 -1.10521,0.384155 z m 28.16462,3.234998 c 1.72544,2.524979 2.94581,5.891607 2.98788,8.24827 0,2.440821 -1.34666,4.923695 -3.91369,7.238306 l -1.72541,1.59917 -4.37664,-4.334593 -4.37663,-4.37662 4.92371,-4.923748 4.92374,-4.923667 0.69632,-0.620705 -1.3149,-1.562355 -1.44353,-0.173604 1.2204,1.052043 c 0.63124,0.58918 1.72545,1.851642 2.39875,2.777503 z m -23.8611,22.051521 8.2483,8.164139 -1.34665,1.388697 -1.3467,1.388778 -7.70119,-7.659118 -7.70117,-7.701248 V 36.41569 33.25948 l 0.79957,1.262462 c 0.42084,0.673311 4.50288,4.965746 9.04784,9.468683 z m 13.2141,-5.344561 4.29247,4.292464 -4.33454,4.334593 -4.29247,4.292463 -4.41873,-4.418752 -4.41875,-4.418724 4.2083,-4.208279 c 2.31459,-2.314559 4.29251,-4.208305 4.41877,-4.208305 0.12628,0 2.14618,1.935798 4.54495,4.33454 z m -23.56654,17.211958 0.0842,17.169904 h -1.89374 -1.89375 V 57.878057 42.728108 h -6.52287 -6.52289 v -2.104113 -2.104166 l 8.33246,0.08416 8.29037,0.126224 z m 54.7922,-15.234027 v 1.683276 h -6.10208 -6.10207 v -1.683276 -1.683301 h 6.10207 6.10208 z m -53.15092,3.240341 -1.13625,1.178358 v -2.314586 -2.314533 l 1.13625,1.17836 1.17828,1.136173 z m 35.89683,-0.841624 v 1.935825 l -1.05208,-0.967912 -1.05206,-1.00994 0.92583,-0.967938 c 0.50498,-0.5471 0.96784,-0.96794 1.05203,-0.96794 0.0842,0 0.12628,0.883728 0.12628,1.977905 z m -42.08304,2.019982 v 1.893721 h -6.10205 -6.10208 v -1.893721 -1.893746 h 6.10208 6.10205 z m 26.04942,10.562857 -9.72122,9.721177 3.03,2.777502 3.02995,2.819582 h -1.59915 c -2.98789,0 -4.50285,-0.715441 -7.11204,-3.366655 l -2.52495,-2.525006 10.94156,-10.941589 10.89951,-10.941614 1.38872,1.346645 1.38878,1.346673 z m 16.03362,-6.649154 v 3.156263 l -1.2204,-1.641197 c -0.67336,-0.883809 -1.89376,-2.314611 -2.73541,-3.072132 l -1.515,-1.472909 1.34668,-1.388697 1.34663,-1.388777 1.38875,1.346645 c 1.34666,1.262517 1.38875,1.472934 1.38875,4.460804 z m -32.69852,-4.208307 1.13623,1.178332 -1.51499,1.472909 c -0.84167,0.757521 -2.06208,2.188323 -2.73539,3.072132 l -1.22041,1.641197 v -2.903739 c 0,-2.651242 0.0842,-2.945818 1.34664,-4.250384 0.75747,-0.757495 1.47291,-1.388752 1.59915,-1.388752 0.12625,0 0.75752,0.547101 1.38877,1.178305 z m 5.55493,15.402421 -5.04993,4.797509 -0.42348,0.366383 1.82567,1.754155 c 1.00999,1.136228 0.87029,0.488599 -0.6447,-0.942258 -2.48292,-2.356638 -4.7554,-6.480758 -5.05001,-9.25826 -0.37873,-3.324579 0.12626,-4.671252 2.90374,-7.659119 l 2.60916,-2.735398 4.41873,4.418752 4.4608,4.460804 z m 23.65073,-11.025774 c 1.17828,1.220437 2.35659,2.693346 2.65116,3.240447 1.2625,2.440819 0.0421,7.785327 -2.56703,11.404478 -0.45707,0.618379 -1.875,1.435407 -2.02718,1.821914 -0.0861,0.218468 0.95636,0.152485 1.01718,0.198063 0.0139,0.01394 -0.42843,0.06272 -0.50715,0.17735 -0.26511,0.386005 -0.49684,1.195549 -0.42283,1.169577 0.55831,-0.195721 2.9074,-3.239731 4.12831,-5.681453 l 1.2204,-2.525029 v 3.997885 c 0,3.829599 -0.0421,4.082071 -1.26252,5.554952 -2.60913,3.156263 -8.62702,6.270419 -13.25616,6.817494 -1.80954,0.252505 -1.97789,0.210412 -1.26247,-0.252533 0.42083,-0.294551 1.76751,-1.430776 2.94579,-2.482873 1.13628,-1.052097 3.28254,-2.609134 4.67124,-3.450811 2.7354,-1.64125 3.82958,-2.651214 3.36667,-3.114131 -0.0167,-0.02091 0.8456,-0.377252 0.73259,-0.493623 -0.23416,-0.240936 -1.53733,-0.31005 -1.66609,-0.248128 -0.31933,0.153432 -0.53219,1.101764 -1.00623,1.523106 -1.34666,1.22041 -1.04819,1.406948 0.42472,-0.192236 l 1.43085,-1.557065 -4.79749,-4.839536 -4.83958,-4.839537 4.20835,-4.20836 c 2.31455,-2.314533 4.29244,-4.208304 4.41872,-4.208304 0.12628,0 1.22041,1.00999 2.39875,2.188322 z m 7.70118,11.067878 v 12.835311 h -1.89376 -1.89376 V 60.192615 47.35728 h 1.89376 1.89376 z m -10.52078,5.092061 c 0,0.883704 -7.99581,8.206191 -9.80535,9.005764 -2.81956,1.220412 -5.30246,1.430804 -8.33246,0.673336 -3.8716,-0.967913 -7.65912,-3.029974 -10.26828,-5.554977 l -2.31453,-2.188322 v -4.166256 l 0.0421,-4.12412 1.30457,2.735423 c 2.31458,4.75538 7.06996,8.500768 12.33034,9.679073 3.53497,0.799625 6.27037,-0.294602 9.76326,-3.871624 l 2.2304,-2.272453 -3.36661,-3.324604 -3.36667,-3.32455 1.34668,-1.388725 1.34663,-1.38875 4.54498,4.502855 c 2.48293,2.482952 4.54498,4.755405 4.54498,5.00793 z m -8.7112,2.272481 c -1.51497,1.514933 -2.94582,2.524951 -3.49286,2.524951 -0.54711,0 -1.93587,-0.967885 -3.40875,-2.398715 l -2.525,-2.398717 3.07205,-3.072079 3.07211,-3.072051 2.94579,2.945815 2.94579,2.98787 z"
         id="path1"
         sodipodi:nodetypes="ccccccccccccccccccccccsccccccccccccccccccccccccccccccccccccccccccccscccccccccccscccccccssccccccccccsccccccccccccccccccccccccscccccssscccccccccccccccccccccccccccccsccccsscccccccccccccscccccccscccccccscccccscscccccccccccccccscssccsccccccsscccccssccccccccccscscccccccccccccscsccccccc"
         style="fill:#000000;stroke:none;stroke-width:0.0420832" />
      <path
         sodipodi:nodetypes="ccccscssccccccssccccccsccccssccccccccccccccsccscccccc"
         d="m 210.63346,2.9793929 c 0.77892,0.0082 1.30587,0.2764342 1.29867,1.3538929 0,0 2.26696,0.036711 3.69657,0.1010048 1.19386,0.535834 4.41518,0.6951031 4.32256,2.5458191 0,0 5.68296,-0.040123 5.72213,0.3170043 0.0248,0.2280072 -0.37054,0.2862188 -0.37054,0.2862188 0,0 -0.98021,3.0124912 -1.73447,4.3951602 -0.23506,0.430756 -0.39709,1.02951 -0.85879,1.195734 -4.33819,1.561959 -4.37834,2.205938 -4.37834,2.205938 l 0.0337,4.092041 3.41852,1.599726 c 0.94131,0.298226 1.6339,0.262337 2.32382,-0.319993 l 4.74874,-4.007752 -0.13465,-3.33423 c 0.25574,-2.379197 1.47593,-3.4885531 3.83939,-3.081758 0.97056,0.167125 1.99755,1.091318 1.98293,1.329957 -0.0329,0.537262 -0.45581,0.818244 -1.17455,1.297083 v 6.298058 c -4.02106,3.449463 -7.23244,7.065628 -10.63429,10.634184 -0.86847,0.673365 -0.64155,2.897207 0.10941,2.903739 l 6.30271,0.461358 3.93592,0.616341 c 4.25673,0.422479 2.52221,5.557252 1.48182,6.197131 -1.04035,0.639907 -0.88447,-1.697 -1.68396,-1.616651 -1.99115,-0.16921 -3.59646,-0.224768 -5.52588,0.102529 -1.8413,-0.611791 -3.85859,-0.359665 -5.79037,-0.371989 v 13.304494 c 14.65358,5.070295 8.03822,15.437383 6.93791,16.502783 -0.86884,0.841334 -1.08346,1.540404 0.53896,1.549318 1.62239,0.0089 5.0435,0.688544 5.22031,4.311029 h -9.3967 c -0.0428,-1.232153 -3.77207,-3.839518 -3.77207,-3.839518 v -4.31087 c 0.46956,-1.284573 0.20216,-3.10945 0.20216,-4.513038 -1.35945,-1.206313 -2.90932,-2.841427 -5.79285,-2.761817 0.65427,6.836693 -3.00183,9.937917 -3.83941,10.575365 -0.41259,0.255349 -0.37046,1.285392 0,1.347175 2.69438,-0.160039 5.25392,1.313534 5.25392,3.63735 l -9.12711,-0.06729 -3.53637,-2.357563 c -0.89531,-0.463101 -0.87288,-1.364049 -0.47151,-2.020802 1.21253,-1.944896 2.48113,-3.195192 3.43526,-6.062301 -0.47151,-8.509655 -0.63631,-8.455887 1.5157,-12.798176 -0.69902,-5.032475 -3.5625,-20.883927 -4.04102,-31.0224 -0.10223,-2.164784 2.4519,-7.319342 3.60318,-11.3461624 V 4.5354003 c 0.63004,-1.176745 1.55973,-1.5639683 2.3386,-1.5559809 z m 5.69397,4.1894219 c -0.0482,1.3861064 0.82985,2.3344742 2.39831,2.4070734 l -0.003,-2.0430185 -0.39349,-0.3416272 z"
         style="display:inline;fill:#000000;fill-opacity:1;fill-rule:evenodd;stroke:none;stroke-width:0.369218;stroke-linecap:butt;stroke-linejoin:miter;stroke-miterlimit:4;stroke-dasharray:none;stroke-opacity:1"
         id="path39" />
    </g>
    <text
       xml:space="preserve"
       style="font-size:49.8295px;font-family:Georgia;-inkscape-font-specification:Georgia;fill:#000000;fill-opacity:1;fill-rule:evenodd;stroke:#000000;stroke-width:0.157401;stroke-opacity:1;-inkscape-stroke:none"
       x="-0.20839562"
       y="42.449276"
       id="text2"><tspan
         sodipodi:role="line"
         id="tspan2"
         style="font-style:normal;font-variant:normal;font-weight:normal;font-stretch:normal;font-size:49.8295px;font-family:Georgia;-inkscape-font-specification:Georgia;fill:#000000;fill-opacity:1;stroke:#000000;stroke-width:0.157401;stroke-opacity:1"
         x="-0.20839562"
         y="42.449276">SHARDIK</tspan></text>
  </g>
</svg>
